<svg width="241" height="240" viewBox="0 0 241 240" fill="none" xmlns="http://www.w3.org/2000/svg">
<path d="M215.681 0H24.3412C10.9041 0 0.011261 10.8929 0.011261 24.33V215.67C0.011261 229.107 10.9041 240 24.3412 240H215.681C229.118 240 240.011 229.107 240.011 215.67V24.33C240.011 10.8929 229.118 0 215.681 0Z" fill="#3370FF"/>
<path d="M93.7313 135.9L73.5013 143.47C73.5013 143.47 72.9613 142.57 63.7113 135.22C56.5213 129.51 58.0013 120.52 61.8513 114.12C62.1066 113.666 62.4597 113.275 62.8851 112.974C63.3104 112.674 63.7973 112.472 64.3105 112.382C64.8236 112.293 65.3502 112.32 65.8519 112.459C66.3536 112.599 66.818 112.849 67.2113 113.19L93.7313 135.9Z" fill="#CCE4FF"/>
<path d="M98.4412 104.59L78.2112 112.17L68.3912 103.91C61.3912 97.98 62.7013 89.2 66.5313 82.82C66.7868 82.3651 67.1402 81.9727 67.566 81.6711C67.9919 81.3696 68.4794 81.1665 68.9933 81.0766C69.5073 80.9866 70.0348 81.012 70.5377 81.151C71.0406 81.2899 71.5064 81.539 71.9013 81.88L98.4412 104.59Z" fill="white"/>
<path d="M179.941 121.47C178.021 123.16 163.671 135.39 160.941 137.63C160.304 138.162 159.495 138.444 158.666 138.424C157.836 138.404 157.042 138.083 156.431 137.52C156.431 137.52 124.671 126.52 111.371 134.98C110.266 135.69 108.961 136.022 107.651 135.924C106.341 135.827 105.099 135.306 104.111 134.44L68.1612 103.68C68.3512 103.81 69.9312 104.82 74.0612 105.37C91.8912 107.71 113.921 77.94 121.501 68.29C121.815 67.8849 122.209 67.5492 122.659 67.3043C123.109 67.0595 123.605 66.9107 124.115 66.8675C124.626 66.8242 125.14 66.8874 125.624 67.0531C126.109 67.2188 126.554 67.4834 126.931 67.83L179.931 115.88C180.32 116.234 180.63 116.666 180.843 117.146C181.055 117.627 181.166 118.147 181.167 118.673C181.168 119.199 181.059 119.719 180.848 120.2C180.637 120.682 180.328 121.114 179.941 121.47Z" fill="#92BEFF"/>
<path d="M172.131 144.51C165.431 151.51 147.541 169.21 130.841 175.84C126.791 177.404 122.389 177.831 118.114 177.075C113.838 176.319 109.85 174.408 106.581 171.55C96.4412 162.95 82.7112 151.23 63.4212 134.97C78.4712 145.66 113.031 110.97 123.421 100.69C124.24 99.8695 125.347 99.4001 126.506 99.3814C127.665 99.3628 128.786 99.7963 129.631 100.59L171.881 138.88C172.657 139.596 173.119 140.589 173.166 141.644C173.213 142.698 172.841 143.729 172.131 144.51Z" fill="white"/>
</svg>
